<svg xmlns="http://www.w3.org/2000/svg" viewBox="0 0 16 16" fill="none">
  <g clip-path="url(#clip0_31289_35718)">
    <path d="M8 2.586c1.789 0 3.311.788 4.474 1.695 1.163.909 2.02 1.98 2.499 2.65.162.228.443.575.443 1.072 0 .497-.28.844-.443 1.072-.479.67-1.336 1.741-2.5 2.65-1.162.907-2.684 1.694-4.473 1.694-1.789 0-3.311-.787-4.474-1.694-1.163-.909-2.021-1.98-2.5-2.65-.142-.2-.374-.491-.43-.893l-.013-.18.013-.179c.056-.402.288-.693.43-.892.479-.67 1.336-1.74 2.5-2.65C4.69 3.374 6.211 2.586 8 2.586zm0 1.5c-1.337 0-2.541.589-3.55 1.377-1.009.787-1.77 1.732-2.202 2.339-.052.073-.09.126-.121.172l-.019.028.019.03c.03.045.069.099.121.172.433.607 1.194 1.551 2.201 2.338 1.01.788 2.214 1.377 3.551 1.377 1.337 0 2.54-.59 3.55-1.377 1.008-.787 1.77-1.731 2.202-2.338l.121-.173.018-.029-.018-.028c-.03-.046-.069-.1-.121-.172-.433-.607-1.194-1.552-2.202-2.34C10.54 4.676 9.337 4.087 8 4.087zm0 1.167a2.75 2.75 0 110 5.5 2.75 2.75 0 010-5.5zm0 1.5a1.25 1.25 0 100 2.5 1.25 1.25 0 000-2.5z" fill="currentColor"/>
  </g>
  <defs>
    <clipPath id="clip0_31289_35718">
      <path fill="currentColor" d="M0 0H16V16H0z"/>
    </clipPath>
  </defs>
</svg>
