<svg xmlns="http://www.w3.org/2000/svg" viewBox="0 0 22 22" fill="none">
  <path d="M12.375 2.91699C14.0797 2.91699 15.4216 2.91581 16.4785 3.03516C17.5491 3.15609 18.4262 3.40923 19.1572 3.98633C19.375 4.15828 19.5771 4.34875 19.7607 4.55469C20.383 5.2527 20.6593 6.09692 20.79 7.12207C20.9181 8.12637 20.916 9.39878 20.916 11C20.916 12.6014 20.9181 13.8746 20.79 14.8789C20.6593 15.9038 20.3829 16.7484 19.7607 17.4463C19.5772 17.652 19.3748 17.8419 19.1572 18.0137C18.4262 18.5908 17.5491 18.8449 16.4785 18.9658C15.4217 19.0852 14.0796 19.084 12.375 19.084H9.625C7.92008 19.084 6.57745 19.0852 5.52051 18.9658C4.44991 18.8448 3.5728 18.591 2.8418 18.0137C2.62412 17.8418 2.42186 17.6522 2.23828 17.4463C1.61611 16.7484 1.34073 15.9038 1.20996 14.8789C1.08189 13.8746 1.08301 12.6014 1.08301 11C1.08301 9.39882 1.08193 8.12636 1.20996 7.12207C1.34067 6.09712 1.61621 5.25262 2.23828 4.55469C2.42184 4.3488 2.62415 4.15825 2.8418 3.98633C3.57273 3.40919 4.45008 3.15612 5.52051 3.03516C6.57745 2.91576 7.92008 2.91699 9.625 2.91699H12.375ZM9.625 4.41699C7.88515 4.41699 6.64254 4.41777 5.68945 4.52539C4.75025 4.63152 4.19045 4.83319 3.77148 5.16406C3.62151 5.28254 3.48237 5.41259 3.35742 5.55273C3.01495 5.93709 2.80777 6.44525 2.69727 7.31152C2.58414 8.19897 2.58301 9.35923 2.58301 11C2.58301 12.6408 2.58414 13.801 2.69727 14.6885C2.80776 15.5547 3.01496 16.0629 3.35742 16.4473C3.48245 16.5875 3.62139 16.7184 3.77148 16.8369C4.19045 17.1677 4.75032 17.3685 5.68945 17.4746C6.64255 17.5822 7.8851 17.584 9.625 17.584H12.375C14.1149 17.584 15.3575 17.5822 16.3105 17.4746C17.2493 17.3685 17.8086 17.1675 18.2275 16.8369C18.3775 16.7185 18.5166 16.5874 18.6416 16.4473C18.9841 16.0629 19.1912 15.5548 19.3018 14.6885C19.4149 13.801 19.416 12.6408 19.416 11C19.416 9.35918 19.4149 8.19898 19.3018 7.31152C19.1912 6.44493 18.9843 5.93714 18.6416 5.55273C18.5166 5.41249 18.3776 5.28261 18.2275 5.16406C17.8086 4.83328 17.2497 4.63149 16.3105 4.52539C15.3574 4.41776 14.1149 4.41699 12.375 4.41699H9.625ZM11.0469 7.95801C12.7266 7.95808 14.0887 9.32033 14.0889 11C14.0887 12.6797 12.7266 14.0409 11.0469 14.041C9.36712 14.041 8.00506 12.6797 8.00488 11C8.00506 9.32028 9.36712 7.95801 11.0469 7.95801ZM11.0469 9.45801C10.1955 9.45801 9.50506 10.1487 9.50488 11C9.50506 11.8513 10.1955 12.541 11.0469 12.541C11.8981 12.5409 12.5887 11.8512 12.5889 11C12.5887 10.1488 11.8981 9.45808 11.0469 9.45801ZM5.5 10.25C5.91406 10.2502 6.25 10.5859 6.25 11C6.25 11.4141 5.91406 11.7498 5.5 11.75H4.58301C4.16894 11.7498 3.83301 11.4141 3.83301 11C3.83301 10.5859 4.16894 10.2502 4.58301 10.25H5.5ZM17.417 10.25C17.8311 10.2502 18.167 10.5859 18.167 11C18.167 11.4141 17.8311 11.7498 17.417 11.75H16.5C16.0858 11.75 15.75 11.4142 15.75 11C15.75 10.5858 16.0858 10.25 16.5 10.25H17.417Z" fill="currentColor"/>
</svg>