<svg xmlns="http://www.w3.org/2000/svg" viewBox="0 0 22 22" fill="none">
  <path d="M17.416 2.91699C18.0009 2.91699 18.5222 2.94632 18.9668 3.04395C19.4198 3.14347 19.8404 3.32383 20.1748 3.6582C20.5092 3.9926 20.6895 4.41323 20.7891 4.86621C20.8867 5.31078 20.916 5.83208 20.916 6.41699C20.916 7.00188 20.8867 7.52324 20.7891 7.96777C20.6895 8.42061 20.5091 8.84148 20.1748 9.17578C19.8404 9.50995 19.4197 9.69055 18.9668 9.79004C18.5223 9.88764 18.0009 9.91699 17.416 9.91699H15.583C14.9981 9.91698 14.4768 9.8877 14.0322 9.79004C13.5793 9.69048 13.1586 9.51014 12.8242 9.17578C12.6463 8.99782 12.5129 8.79484 12.4111 8.57617L10.957 11L12.4111 13.4238C12.5129 13.2052 12.6463 13.0022 12.8242 12.8242C13.1586 12.4899 13.5793 12.3095 14.0322 12.21C14.4768 12.1123 14.9981 12.083 15.583 12.083H17.416C18.0009 12.083 18.5223 12.1124 18.9668 12.21C19.4197 12.3095 19.8404 12.4901 20.1748 12.8242C20.5091 13.1585 20.6895 13.5794 20.7891 14.0322C20.8867 14.4768 20.916 14.9981 20.916 15.583C20.916 16.1679 20.8867 16.6892 20.7891 17.1338C20.6895 17.5868 20.5092 18.0074 20.1748 18.3418C19.8404 18.6762 19.4198 18.8565 18.9668 18.9561C18.5222 19.0537 18.0009 19.083 17.416 19.083H15.583C14.9981 19.083 14.4768 19.0537 14.0322 18.9561C13.5794 18.8565 13.1585 18.6761 12.8242 18.3418C12.49 18.0074 12.3095 17.5867 12.21 17.1338C12.1245 16.7444 12.0928 16.2962 12.0859 15.7979L9.8623 12.0898C9.84362 12.2513 9.82103 12.4053 9.78906 12.5508C9.6895 13.0037 9.50919 13.4244 9.1748 13.7588C8.84038 14.0931 8.41976 14.2735 7.9668 14.373C7.52226 14.4707 7.00088 14.5 6.41602 14.5H4.58301C3.99812 14.5 3.47676 14.4707 3.03223 14.373C2.57933 14.2735 2.15856 14.0931 1.82422 13.7588C1.48991 13.4244 1.3095 13.0037 1.20996 12.5508C1.1123 12.1062 1.08301 11.585 1.08301 11C1.08301 10.415 1.1123 9.89382 1.20996 9.44922C1.3095 8.99628 1.48991 8.5756 1.82422 8.24121C2.15856 7.90687 2.57933 7.72652 3.03223 7.62695C3.47676 7.5293 3.99812 7.50001 4.58301 7.5H6.41602C7.00088 7.5 7.52226 7.52934 7.9668 7.62695C8.41976 7.72646 8.84038 7.90694 9.1748 8.24121C9.50919 8.57559 9.6895 8.99626 9.78906 9.44922C9.82096 9.59444 9.84363 9.74808 9.8623 9.90918L12.0859 6.20215C12.0928 5.70383 12.1245 5.25564 12.21 4.86621C12.3095 4.41335 12.49 3.99257 12.8242 3.6582C13.1585 3.32388 13.5794 3.14351 14.0322 3.04395C14.4768 2.94629 14.9981 2.917 15.583 2.91699H17.416ZM15.583 13.583C15.0307 13.583 14.6387 13.6124 14.3545 13.6748C14.0789 13.7354 13.9534 13.8162 13.8848 13.8848C13.8162 13.9534 13.7354 14.0789 13.6748 14.3545C13.6124 14.6387 13.583 15.0307 13.583 15.583C13.583 16.1352 13.6124 16.5273 13.6748 16.8115C13.7353 17.0869 13.8162 17.2126 13.8848 17.2812C13.9534 17.3498 14.0789 17.4306 14.3545 17.4912C14.6387 17.5536 15.0307 17.583 15.583 17.583H17.416C17.9681 17.583 18.3603 17.5536 18.6445 17.4912C18.9201 17.4307 19.0456 17.3498 19.1143 17.2812C19.1829 17.2126 19.2636 17.0873 19.3242 16.8115C19.3866 16.5272 19.416 16.1353 19.416 15.583C19.416 15.0307 19.3866 14.6387 19.3242 14.3545C19.2636 14.0789 19.1828 13.9534 19.1143 13.8848C19.0455 13.8162 18.9197 13.7353 18.6445 13.6748C18.3603 13.6125 17.968 13.583 17.416 13.583H15.583ZM4.58301 9C4.03074 9.00001 3.63872 9.02938 3.35449 9.0918C3.0789 9.15238 2.95336 9.23316 2.88477 9.30176C2.81618 9.37042 2.73535 9.49589 2.6748 9.77148C2.61239 10.0558 2.58301 10.4476 2.58301 11C2.58301 11.5524 2.61239 11.9442 2.6748 12.2285C2.73535 12.5041 2.81618 12.6296 2.88477 12.6982C2.95336 12.7668 3.0789 12.8476 3.35449 12.9082C3.63872 12.9706 4.03074 13 4.58301 13H6.41602C6.96806 13 7.36029 12.9705 7.64453 12.9082C7.91991 12.8477 8.04556 12.7668 8.11426 12.6982C8.18288 12.6296 8.26363 12.5043 8.32422 12.2285C8.38666 11.9442 8.41602 11.5525 8.41602 11C8.41602 10.4475 8.38666 10.0558 8.32422 9.77148C8.26363 9.49572 8.18288 9.37038 8.11426 9.30176C8.04556 9.2332 7.91991 9.15229 7.64453 9.0918C7.36029 9.02946 6.96806 9 6.41602 9H4.58301ZM15.583 4.41699C15.0307 4.417 14.6387 4.44637 14.3545 4.50879C14.0789 4.56937 13.9534 4.65016 13.8848 4.71875C13.8162 4.78744 13.7353 4.9131 13.6748 5.18848C13.6124 5.47273 13.583 5.86479 13.583 6.41699C13.583 6.96926 13.6124 7.36128 13.6748 7.64551C13.7354 7.92115 13.8162 8.04663 13.8848 8.11523C13.9534 8.18384 14.0789 8.26461 14.3545 8.3252C14.6387 8.38761 15.0307 8.41698 15.583 8.41699H17.416C17.968 8.41699 18.3603 8.38752 18.6445 8.3252C18.9197 8.26475 19.0455 8.18375 19.1143 8.11523C19.1828 8.04664 19.2636 7.92105 19.3242 7.64551C19.3866 7.36127 19.416 6.96931 19.416 6.41699C19.416 5.86466 19.3866 5.47275 19.3242 5.18848C19.2636 4.91267 19.1829 4.78737 19.1143 4.71875C19.0456 4.65016 18.9201 4.56933 18.6445 4.50879C18.3603 4.44644 17.9681 4.41699 17.416 4.41699H15.583Z" fill="currentColor"/>
</svg>